<svg width="34" height="30" viewBox="0 0 34 30" fill="none" xmlns="http://www.w3.org/2000/svg">
<g id="simple-line-icons:cloud-upload" clip-path="url(#clip0_26_240)">
<path id="Vector" d="M24.6982 7.61619C23.2567 4.1465 20.1579 1.94897 15.477 1.94897C9.52106 1.94897 5.35388 5.96007 4.99575 11.1932C2.12423 12.0262 0.0512695 14.683 0.0512695 17.6924C0.0512695 21.3763 3.24423 24.4883 7.02272 24.4883H10.0089C10.5795 24.4883 11.0426 24.0683 11.0426 23.5508C11.0426 23.0329 10.5795 22.6133 10.0089 22.6133H7.02272C4.36416 22.6133 2.08598 20.3601 2.08598 17.6924C2.08598 15.3351 3.90832 13.2083 6.19424 12.8521L7.13228 12.7054L7.04907 11.8462L7.04132 11.8354C7.04132 7.26882 10.3547 3.82444 15.477 3.82444C19.5826 3.82444 21.8893 5.65913 22.956 8.7885L23.1772 9.43397L23.9219 9.4485C27.7619 9.52163 31.1286 12.3473 31.1286 15.8578C31.1286 19.0528 28.794 22.6134 25.2595 22.6134H22.8976C22.327 22.6134 21.8639 23.0334 21.8639 23.5509C21.8639 24.0688 22.327 24.4884 22.8976 24.4884L25.2517 24.4856C30.42 24.3618 33.1121 19.8839 33.1121 15.8578C33.1121 11.5303 29.3729 8.07234 24.6982 7.61625L24.6982 7.61619ZM17.3644 15.0861C17.3587 15.0805 17.3566 15.0758 17.353 15.0711L17.0915 14.8231C16.9483 14.6858 16.7576 14.6178 16.5669 14.6188C16.3762 14.6174 16.1865 14.6858 16.0408 14.8231L15.7793 15.0711C15.7741 15.0758 15.773 15.0814 15.7684 15.0861L12.0375 18.8286C11.7485 19.1024 11.7485 19.5453 12.0375 19.82L12.2979 19.9803C12.5869 20.254 13.0551 20.1654 13.3435 19.8917L15.5436 17.667V27.1133C15.5436 27.6308 16.0067 28.0508 16.5773 28.0508C17.1479 28.0508 17.6109 27.6308 17.6109 27.1133V17.6759L19.884 19.9503C20.1729 20.224 20.6401 20.3126 20.9285 20.0389L21.1889 19.8786C21.4779 19.6039 21.4779 19.1609 21.1889 18.8872L17.3644 15.0861Z" fill="#FEFEFE"/>
</g>
<defs>
<clipPath id="clip0_26_240">
<rect width="33.0769" height="30" fill="white" transform="translate(0.0512695)"/>
</clipPath>
</defs>
</svg>
